<svg width="1000" height="1000" viewBox="0 0 1000 1000" fill="none" xmlns="http://www.w3.org/2000/svg">
<path d="M150.467 507V395.463H194.846C218.81 395.463 235.378 406.557 235.378 432.149C235.378 458.48 221.177 470.018 195.881 470.018H179.461V507H150.467ZM179.461 418.835V446.646H184.343C194.846 446.646 205.201 446.646 205.201 433.036C205.201 418.983 195.585 418.835 184.343 418.835H179.461ZM319.124 391.764C351.225 391.764 380.81 415.433 380.81 449.16C380.81 485.255 354.923 510.698 319.124 510.698C283.326 510.698 257.439 485.255 257.439 449.16C257.439 415.433 287.024 391.764 319.124 391.764ZM319.124 419.871C301.817 419.871 287.616 433.924 287.616 449.308C287.616 468.539 301.817 482.592 319.124 482.592C336.432 482.592 350.633 468.539 350.633 449.308C350.633 433.924 336.432 419.871 319.124 419.871ZM453.401 420.019V507H424.407V420.019H400.443V395.463H477.365V420.019H453.401ZM558.755 391.764C590.856 391.764 620.441 415.433 620.441 449.16C620.441 485.255 594.554 510.698 558.755 510.698C522.957 510.698 497.07 485.255 497.07 449.16C497.07 415.433 526.655 391.764 558.755 391.764ZM558.755 419.871C541.448 419.871 527.247 433.924 527.247 449.308C527.247 468.539 541.448 482.592 558.755 482.592C576.063 482.592 590.264 468.539 590.264 449.308C590.264 433.924 576.063 419.871 558.755 419.871ZM677.647 395.463V482.444H712.41V507H648.654V395.463H677.647ZM792.752 391.764C824.853 391.764 854.438 415.433 854.438 449.16C854.438 485.255 828.551 510.698 792.752 510.698C756.954 510.698 731.067 485.255 731.067 449.16C731.067 415.433 760.652 391.764 792.752 391.764ZM792.752 419.871C775.445 419.871 761.244 433.924 761.244 449.308C761.244 468.539 775.445 482.592 792.752 482.592C810.06 482.592 824.261 468.539 824.261 449.308C824.261 433.924 810.06 419.871 792.752 419.871Z" fill="#F4A460"/>
<path d="M155.015 569.511V609.812H168.83V615H149.344V569.511H155.015ZM313.789 569.511V615H308.118V569.511H313.789ZM481.471 592.075H499.51V593.885C499.51 606.373 490.701 615.965 477.972 615.965C465.242 615.965 454.986 604.985 454.986 592.376C454.986 579.285 465.484 568.546 478.575 568.546C485.634 568.546 492.632 571.743 497.096 577.354L493.115 581.155C489.857 576.691 484.367 573.734 478.816 573.734C468.621 573.734 460.657 582 460.657 592.195C460.657 601.727 468.5 610.777 478.334 610.777C485.392 610.777 492.994 604.684 493.235 597.263H481.471V592.075ZM646.067 587.852H667.726V569.511H673.397V615H667.726V593.161H646.067V615H640.396V569.511H646.067V587.852ZM829.579 574.7V615H823.908V574.7H813.109V569.511H840.378V574.7H829.579Z" fill="#F4A460"/>
</svg>
